<svg xmlns="http://www.w3.org/2000/svg" xmlns:xlink="http://www.w3.org/1999/xlink" width="25px" height="25px" viewBox="0 0 25 25" version="1.1">
    <title>金额</title>
    <g id="货币体系" stroke="none" stroke-width="1" fill="none" fill-rule="evenodd">
        <g id="H5充值" transform="translate(-175.000000, -270.000000)">
            <g id="金额" transform="translate(136.000000, 258.000000)">
                <g id="充值图案" transform="translate(39.604088, 12.487182)" fill-rule="nonzero">
                    <g id="金币">
                        <path d="M0,12 C0,18.6133359 5.35999219,24 12,24 C18.6400078,24 24,18.6400078 24,12 C24,5.35999219 18.6133359,0 12,0 C5.38666406,0 0,5.38666406 0,12 Z" id="路径" fill="#FBE945"/>
                        <path d="M2,12 C2,17.514286 6.48568889,22 12,22 C17.5143111,22 22,17.5143111 22,12 C22,6.48568889 17.5143111,2 12,2 C6.48568889,2 2,6.48568889 2,12 Z" id="路径" fill="#FBB11B"/>
                        <path d="M21,11.4854676 C21,9.45645095 20.3548268,7.39998554 19.245138,5.86451675 C17.7999909,4.6854724 15.8903282,4 13.9548314,4 C9,4 5,8.25000602 5,13.5145083 C5,15.5435249 5.6451505,17.5999904 6.7548393,19.1354592 C8.19998639,20.3145035 10.1096718,21 12.045146,21 C17,21 21,16.749994 21,11.4854676 L21,11.4854676 Z" id="路径" fill="#FDC72F"/>
                        <path d="M13.3133614,14.0789398 L15.2364197,14.0789398 C15.7510477,14.0789398 15.9948163,14.3157822 15.9948163,14.815788 C15.9948163,15.3157937 15.7510477,15.5526361 15.2364197,15.5526361 L13.3133614,15.5526361 L13.3133614,17.1052723 C13.3133614,17.4473523 13.25918,17.6841947 13.1508411,17.7894786 C13.0695928,17.9473812 12.8258242,18 12.5007835,18 C12.2028573,18 11.9861793,17.9473812 11.8778166,17.8157995 C11.7424107,17.7105388 11.6882293,17.4736964 11.6882293,17.1315701 L11.6882293,15.5789571 L9.7922617,15.5789571 C9.27763376,15.5789571 9.03386513,15.3421147 9.03386513,14.8421089 C9.03386513,14.3421031 9.27763376,14.1052607 9.76517101,14.1052607 L11.6882293,14.1052607 L11.6882293,13.4210545 L9.7922617,13.4210545 C9.27763376,13.4210545 9.03386513,13.184212 9.03386513,12.6842063 C9.03386513,12.1842005 9.27763376,11.9473581 9.76517101,11.9473581 L10.8485607,11.9473581 C10.5777252,11.5 10.3068658,11.0526304 10.0089396,10.6052665 C9.73808032,10.1578795 9.4401303,9.71051566 9.16929479,9.26315181 C9.03384132,9.0263094 8.97968374,8.81578795 9.00677444,8.6578853 C9.03386513,8.47368482 9.16929479,8.31578217 9.33179134,8.21052145 C9.54849308,8.07891663 9.73808032,8 9.90060067,8.02629783 C10.0901879,8.0526188 10.2526845,8.21052145 10.4152048,8.47368482 L12.5008073,11.8420974 C12.8528911,11.2894728 13.1779318,10.7105272 13.5029487,10.1578795 C13.8550563,9.60525494 14.180097,9.0263094 14.5051139,8.47368482 C14.6134528,8.31578217 14.6947011,8.18420048 14.7759732,8.13155856 C14.8572215,8.0526188 14.9655604,8 15.0468087,8 C15.1280808,8 15.2364197,8 15.317668,8.02629783 C15.3989401,8.0526188 15.5072791,8.10526072 15.615618,8.18420048 C15.832296,8.31578217 15.9677018,8.47368482 15.9948163,8.63156434 C16.0218832,8.78946699 15.9406349,9.00001156 15.8052053,9.23685397 L14.1530063,11.8947393 L15.2093291,11.8947393 C15.723957,11.8947393 15.9677256,12.1315817 15.9677256,12.6315643 C15.9677256,13.131547 15.723957,13.3684125 15.2093291,13.3684125 L13.3133614,13.3684125 L13.3133614,14.0789398 L13.3133614,14.0789398 Z" id="路径" fill="#FBB11B"/>
                        <path d="M13.3133376,13.0789488 L15.2364197,13.0789488 C15.7510239,13.0789488 15.9947925,13.3157907 15.9947925,13.8157953 C15.9947925,14.3157999 15.7510239,14.5526187 15.2364197,14.5526187 L13.3133376,14.5526187 L13.3133376,16.1052744 C13.3133376,16.4473536 13.25918,16.6841954 13.1508411,16.789479 C13.069569,16.9473582 12.8258004,17 12.5007835,17 C12.2028335,17 11.9861555,16.9473582 11.8778166,16.8157768 C11.7423869,16.7105395 11.6882293,16.4736976 11.6882293,16.1315721 L11.6882293,14.5789396 L9.7922379,14.5789396 C9.27760995,14.5789396 9.03384132,14.3420977 9.03384132,13.8420931 C9.03384132,13.3420885 9.27760995,13.1052697 9.7651472,13.1052697 L11.6882293,13.1052697 L11.6882293,12.4210419 L9.7922379,12.4210419 C9.27760995,12.4210419 9.03384132,12.1842001 9.03384132,11.6842186 C9.03384132,11.1842371 9.27760995,10.9473721 9.7651472,10.9473721 L10.8485845,10.9473721 C10.5777252,10.5 10.3068658,10.0526233 10.0089158,9.60526048 C9.73808032,9.15789766 9.4401303,8.71053484 9.16929479,8.26317202 C9.03384132,8.02633015 8.97968374,7.81578607 9.00677444,7.65788378 C9.03384132,7.47368372 9.16927098,7.31580457 9.33179134,7.21052096 C9.54846927,7.07896271 9.73808032,7 9.90057686,7.0263209 C10.0901879,7.0526418 10.2526845,7.21052096 10.4152048,7.47368372 L12.5007835,10.8421116 C12.8528911,10.2894652 13.177908,9.71052096 13.5029487,9.15789766 C13.8550325,8.60527436 14.1800732,8.02633015 14.5051139,7.47368372 C14.613429,7.31580457 14.6947011,7.18422319 14.7759494,7.13160451 C14.8572215,7.0526418 14.9655604,7 15.0468087,7 C15.128057,7 15.2364197,7 15.317668,7.0263209 C15.3989163,7.0526418 15.5072553,7.10526048 15.6155942,7.18422319 C15.832296,7.31580457 15.9677256,7.47368372 15.9948163,7.63158601 C16.0218832,7.78948829 15.9406349,8 15.8052053,8.23685111 L14.1529825,10.8947303 L15.2093291,10.8947303 C15.723957,10.8947303 15.9677256,11.1315721 15.9677256,11.6315768 C15.9677256,12.1315814 15.723957,12.3684232 15.2093291,12.3684232 L13.3133376,12.3684232 L13.3133376,13.0789488 L13.3133376,13.0789488 Z" id="路径" fill="#FBE945"/>
                    </g>
                </g>
            </g>
        </g>
    </g>
</svg>
